<svg id="Layer_1" data-name="Layer 1" xmlns="http://www.w3.org/2000/svg" viewBox="0 0 705.7 285.78"><title>position2-logo-full</title><g id="Layer_1-2" data-name="Layer_1"><g id="_424121496" data-name=" 424121496"><path d="M483.93,184.7c-5.47-5.54-12.38-8.35-20.81-8.35s-15.34,2.81-20.81,8.35-8.21,12.82-8.21,21.67,2.74,16.06,8.21,21.67,12.38,8.35,20.81,8.35,15.34-2.81,20.81-8.35,8.21-12.82,8.21-21.67-2.74-16.06-8.21-21.67h0ZM0,285.79V160.43H19.37v8.35c8.35-6.48,18.36-9.72,30-9.72q20.74,0,34.56,13.75a45.53,45.53,0,0,1,13.82,33.55q0,19.87-13.82,33.55h0q-13.82,13.72-34.56,13.75c-11.59,0-21.6-3.24-30-9.72v41.83H0ZM70.13,184.7c-5.47-5.54-12.38-8.35-20.81-8.35S34,179.15,28.51,184.7s-8.21,12.82-8.21,21.67S23,222.43,28.51,228s12.38,8.35,20.81,8.35,15.34-2.81,20.81-8.35,8.21-12.82,8.21-21.67-2.74-16.06-8.21-21.67h0Zm427.55,55.23q-13.82,13.72-34.56,13.75t-34.56-13.75a45.53,45.53,0,0,1-13.82-33.55q0-19.87,13.82-33.55t34.56-13.75q20.74,0,34.56,13.75a45.53,45.53,0,0,1,13.82,33.55q0,19.87-13.82,33.55h0Zm-93.6,12.31H384.71V160.36h19.37v91.88Zm-0.86-110.16a11.75,11.75,0,0,1-8.64,3.6,12,12,0,0,1-8.64-3.6,11.75,11.75,0,0,1-3.6-8.64,12,12,0,0,1,3.6-8.64,11.64,11.64,0,0,1,8.64-3.6,12,12,0,0,1,8.64,3.6,11.75,11.75,0,0,1,3.6,8.64,12,12,0,0,1-3.6,8.64h0Zm-52.13,90.87c2.3,2.59,5.54,3.89,9.65,3.89s8.14-2,12-6l7.92,13.61c-6.77,6.12-14.33,9.14-22.54,9.14A29.19,29.19,0,0,1,337,245c-5.83-5.69-8.71-13.39-8.71-23V175.84H316.67V160.29h11.59v-28.8h19.37v28.8h24.19v15.55H347.63v46.59c0,4.39,1.15,7.85,3.46,10.44h0v0.07ZM307,252.17H287.65V160.29H307v91.88ZM306.15,142a11.75,11.75,0,0,1-8.64,3.6,12,12,0,0,1-8.64-3.6,11.75,11.75,0,0,1-3.6-8.64,12,12,0,0,1,3.6-8.64,11.75,11.75,0,0,1,8.64-3.6,12,12,0,0,1,8.64,3.6,11.75,11.75,0,0,1,3.6,8.64,12,12,0,0,1-3.6,8.64h0Zm-63.22,33.12a22.37,22.37,0,0,0-11.23,2.52,8.12,8.12,0,0,0-4.32,7.49c0,3,1.51,5.18,4.46,6.55a46.41,46.41,0,0,0,8.71,3c3.74,0.94,7.06,1.87,9.94,2.74s5.69,1.94,8.35,3.1a51.25,51.25,0,0,1,8.71,4.82c6.19,4.18,9.29,10.58,9.29,19.37s-3.17,15.77-9.5,21-14.47,7.85-24.34,7.85a66.27,66.27,0,0,1-20.81-3.6,64.49,64.49,0,0,1-19.08-10.15l9.36-15q16.09,12.1,31.11,12.1,6.59,0,10.37-3a9.51,9.51,0,0,0,3.82-7.7c0-4.61-6.12-8.71-18.29-12.46-0.94-.36-1.58-0.58-2.09-0.72q-28.62-7.78-28.66-25.92a24.56,24.56,0,0,1,9.94-20.45c6.62-5.11,15.19-7.7,25.85-7.7a53.79,53.79,0,0,1,30,9.29l-7.27,14.33A43.19,43.19,0,0,0,242.94,175h0v0.14Zm-69.7,9.43c-5.47-5.54-12.38-8.35-20.81-8.35s-15.34,2.81-20.81,8.35-8.21,12.82-8.21,21.67,2.74,16.06,8.21,21.67,12.38,8.35,20.81,8.35,15.34-2.81,20.81-8.35,8.21-12.82,8.21-21.67-2.74-16.06-8.21-21.67h0ZM187,239.78q-13.82,13.72-34.56,13.75t-34.56-13.75A45.53,45.53,0,0,1,104,206.23q0-19.87,13.82-33.55t34.56-13.75q20.74,0,34.56,13.75a45.53,45.53,0,0,1,13.82,33.55q0,19.87-13.82,33.55h0Z" transform="translate(0 -0.01)" style="fill:#3765a0"/><path d="M546.86,181a26.15,26.15,0,0,1,18.07-6.91q21.82,0,21.82,26.28v52.27h20V194.35c0-12.38-3.31-21.89-9.94-28.44s-15.26-9.86-26-9.86a36.22,36.22,0,0,0-31.68,18.79V157.48h-20v95.19h20V201.12c0-8.86,2.59-15.55,7.7-20.16h0V181Z" transform="translate(0 -0.01)" style="fill:#3765a0"/><path d="M557.66,0a44.57,44.57,0,1,1-44.5,44.57A44.54,44.54,0,0,1,557.66,0h0Z" transform="translate(0 -0.01)" style="fill:#f5c02f"/><path d="M466,19.67a32.91,32.91,0,1,1-32.76,32.91A32.86,32.86,0,0,1,466,19.67h0Z" transform="translate(0 -0.01)" style="fill:#3765a0"/><path d="M415.53,73.09A18.94,18.94,0,1,1,396.59,92a19,19,0,0,1,18.94-18.94h0Z" transform="translate(0 -0.01)" style="fill:#31ae54"/><path d="M670.78,133H642l14.83-15.12c4.54-4.68,7.63-8.5,9.36-11.45a18.1,18.1,0,0,0,2.52-9.36c0-5.83-2-10.37-6-13.75a20.78,20.78,0,0,0-13.9-5c-5.33,0-9.65,1.08-13,3.17a31.21,31.21,0,0,0-9.22,9.43l8.64,5q5.18-8,13-8a10.37,10.37,0,0,1,7.34,2.66A8.49,8.49,0,0,1,658.53,97a13,13,0,0,1-2.74,7.56,105.88,105.88,0,0,1-9.14,10.22l-19.22,19.3v9.07h43.35V133Zm-22.68,39.46a57.75,57.75,0,1,1,57.6-57.75,57.66,57.66,0,0,1-57.6,57.75h0Z" transform="translate(0 -0.01)" style="fill:#da423e"/></g></g></svg>